<svg width="180" height="247" viewBox="0 0 180 247" fill="none" xmlns="http://www.w3.org/2000/svg">
<g id="Traced Image" clip-path="url(#clip0_158_61)">
<path id="Vector" fill-rule="evenodd" clip-rule="evenodd" d="M100.507 2.25C100.215 3.488 99.5661 7.2 99.0651 10.5C97.9131 18.09 96.3951 24.005 95.3242 25.076C94.8671 25.533 92.4701 24.148 89.9981 21.998C87.5261 19.848 83.8681 17.17 81.8681 16.046L78.2331 14.003L78.3671 25.03C78.5132 37.164 78.1501 37.956 72.4241 37.985C70.4231 37.995 68.5281 37.127 67.0001 35.5C65.7081 34.125 63.8771 33 62.9311 33C59.7921 33 55.3001 38.265 54.5251 42.854C53.9421 46.303 53.4791 47.007 52.1501 46.467C51.2431 46.097 49.2621 45.347 47.7501 44.8C46.1631 44.225 45.0001 43.057 45.0001 42.037C45.0001 39.492 41.1761 35 39.0091 35C33.9101 35 29.9501 51.185 33.3721 58.044C34.2671 59.839 35.0001 61.636 35.0001 62.037C35.0001 62.71 30.0301 63.963 13.0001 67.586C9.42515 68.346 5.42114 69.088 4.10214 69.234C-0.0218573 69.691 -0.668852 72.256 2.34315 76.205C3.80415 78.121 5.00015 80.681 5.00015 81.894C5.00015 84.569 7.26714 89.147 9.51614 91.013C10.4221 91.765 12.4271 94.882 13.9721 97.94C18.3931 106.689 22.1301 109 31.8601 109C39.8981 109 53.3471 112.099 56.0931 114.584C58.1661 116.46 58.8241 124.373 57.0001 125.5C56.4501 125.84 56.0001 127.176 56.0001 128.47C56.0001 130.093 54.1411 132.451 50.0001 136.082C46.7001 138.975 44.0001 141.808 44.0001 142.379C44.0001 142.949 45.6661 145.121 47.7011 147.206C51.8372 151.441 51.6641 151.874 44.8291 154.387C37.7331 156.997 37.5361 157.612 41.0811 166.106C46.0361 177.978 51.9052 194.69 55.0742 205.951C58.9742 219.808 58.7731 220.772 48.3731 238.131C43.3071 246.588 44.1051 248.261 50.8171 243.25C61.6141 235.188 73.3601 222.821 80.2501 212.259C81.7621 209.94 83.0001 207.583 83.0001 207.021C83.0001 206.46 83.3681 206 83.8191 206C84.2691 206 87.0261 201.163 89.9461 195.25C92.8651 189.337 95.8161 183.375 96.5041 182C97.1911 180.625 98.7861 176.125 100.047 172C101.309 167.875 102.481 164.321 102.652 164.101C102.824 163.882 107.22 164.728 112.422 165.981C117.625 167.234 122.583 167.99 123.44 167.661C124.709 167.174 125 165.199 125 157.067C125 148.207 125.22 146.953 126.934 146.035C127.998 145.466 129.686 144.997 130.684 144.994C131.683 144.99 133.789 144.315 135.364 143.494C136.94 142.672 139.158 142 140.293 142C141.429 142 143.74 141.579 145.429 141.065C147.118 140.55 151.425 139.383 155 138.471C158.575 137.559 162.281 136.404 163.236 135.906C164.191 135.408 165.901 135 167.036 135C170.718 135 175 132.134 175 129.671C175 126.756 168.815 114.442 166.529 112.804C165.995 112.422 165.851 111.815 166.21 111.457C166.939 110.727 172.392 113.569 175.409 116.25C180.546 120.818 180.912 116.282 177.119 95C174.029 77.656 165.908 61.285 154.848 50.104C150.084 45.288 140.11 38.461 132.883 35.071C129.271 33.376 127.653 31.773 125.447 27.702C120.193 18.005 115.7 11.618 110.042 5.79999C104.027 -0.386011 101.363 -1.377 100.507 2.25ZM102 18.101C102 19.476 101.11 24.629 100.022 29.551C98.9342 34.473 98.0341 39.51 98.0221 40.744C97.9931 43.747 104.565 48.441 111.704 50.516C118.871 52.6 121.726 51.728 117.049 48.884C109.505 44.296 107.2 40.081 105.645 28.03C104.929 22.482 103.816 17.416 103.172 16.772C102.276 15.876 102 16.189 102 18.101ZM59.5121 37.401C56.2111 40.46 56.2331 43.758 59.5631 45.024C61.5431 45.777 62.6731 45.6 64.5321 44.249C67.1571 42.34 67.5201 40.839 66.0281 38.052C64.4591 35.12 62.2161 34.896 59.5121 37.401ZM37.2901 39.225C35.0881 42.042 34.1391 49.041 35.3791 53.323C36.9891 58.887 39.5441 59.381 40.4381 54.301C42.2531 43.981 42.2171 41.506 40.2241 39.703C38.6861 38.311 38.0811 38.212 37.2901 39.225ZM67.0001 48.865C67.0001 51.333 67.4251 52 69.0001 52C70.1001 52 71.0001 51.733 71.0001 51.408C71.0001 51.082 70.1001 49.671 69.0001 48.273L67.0001 45.73V48.865ZM45.6671 48.667C44.6381 49.695 44.8791 54 45.9651 54C46.4951 54 47.4302 53.065 48.0422 51.922C48.6782 50.733 49.7621 50.078 50.5771 50.391C51.4101 50.711 52.0001 50.328 52.0001 49.469C52.0001 47.968 46.9981 47.335 45.6671 48.667ZM54.2501 49.718C52.5321 50.334 52.6721 52 54.4411 52C56.0971 52 57.4081 50.351 56.2662 49.704C55.8451 49.465 54.9381 49.472 54.2501 49.718ZM52.1661 56.06C52.6011 59.034 54.7201 59.736 54.5061 56.835C54.4161 55.614 53.7782 54.426 53.0872 54.196C52.2682 53.923 51.9481 54.571 52.1661 56.06ZM76.7071 63.627C76.3231 64.01 77.0991 65.752 78.4311 67.498C81.6251 71.686 84.6191 80.781 83.2541 82.146C82.3451 83.055 78.8581 81.858 77.0001 80C76.7251 79.725 74.7971 78.712 72.7161 77.75C68.5261 75.812 55.2341 75.301 52.2361 76.962C49.9501 78.23 39.0731 83 38.4701 83C37.3411 83 38.1531 80.213 39.7991 78.439C42.2811 75.765 47.0001 68.72 47.0001 67.689C47.0001 66.896 42.2381 67.093 25.6771 68.569C20.4241 69.037 18.9771 69.497 19.3871 70.567C19.6801 71.331 19.1951 73.913 18.3081 76.306C16.4451 81.333 17.0151 84.842 20.2581 88.316C23.1981 91.464 26.4771 92.073 45.0001 92.912C56.2731 93.422 61.5231 94.079 64.2501 95.32C71.2901 98.524 67.5092 100.708 57.4602 99.241C50.4642 98.22 38.7431 98.775 39.5551 100.089C39.8651 100.59 41.8651 101 44.0001 101C46.1351 101 48.1601 101.45 48.5001 102C48.8401 102.55 50.8221 103 52.9051 103C59.3021 103 66.2151 107.591 69.3242 113.904C72.3452 120.038 71.4971 126.975 66.0872 140.379C63.9791 145.604 65.7041 144.225 71.4161 136.12C78.2221 126.462 80.0001 122.439 80.0001 116.699C80.0001 110.951 80.8881 110.302 83.3451 114.254C84.8711 116.707 85.4711 119.76 85.8011 126.75C86.0421 131.837 86.4801 136 86.7751 136C87.0701 136 88.7861 134.875 90.5891 133.5C92.3922 132.125 94.2381 131 94.6921 131C95.1461 131 98.6641 127.738 102.509 123.75C111.489 114.438 113.455 109.427 112.733 97.698C112.145 88.139 109.808 82.924 103.346 76.753C97.6891 71.35 90.3981 66.273 86.6251 65.108C81.3541 63.48 77.4381 62.896 76.7071 63.627Z" fill="black"/>
</g>
<defs>
<clipPath id="clip0_158_61">
<rect width="180" height="247" fill="white"/>
</clipPath>
</defs>
</svg>
